<?xml version="1.0" encoding="UTF-8" standalone="no"?>
<!DOCTYPE svg PUBLIC "-//W3C//DTD SVG 20010904//EN"
              "http://www.w3.org/TR/2001/REC-SVG-20010904/DTD/svg10.dtd">

<svg xmlns="http://www.w3.org/2000/svg"
     width="2.33304in" height="1.03112in"
     viewBox="0 0 224 99">
  <path id="Auswahl"
        fill="none" stroke="black" stroke-width="1"
        d="M 154.02,14.73
           C 151.40,15.07 149.05,17.08 150.17,19.91
             151.24,22.61 155.55,24.49 158.00,25.76
             162.48,28.08 166.18,30.28 168.55,35.00
             169.80,37.50 170.08,40.24 169.95,43.00
             169.47,53.99 158.96,59.23 149.00,58.48
             143.52,58.07 132.31,55.14 135.61,47.16
             137.96,41.48 144.38,48.62 151.00,47.74
             153.44,47.41 157.08,45.56 156.72,42.58
             156.20,38.35 148.24,35.86 145.00,33.91
             135.67,28.28 132.17,16.11 141.11,8.39
             148.40,2.09 162.75,3.40 165.99,8.39
             167.75,11.13 166.82,15.12 165.99,18.00
             163.05,16.98 156.90,14.35 154.02,14.73 Z
           M 66.98,55.63
           C 64.89,58.60 58.11,58.82 56.02,55.63
             54.88,53.98 55.01,51.00 55.00,49.00
             55.00,49.00 55.00,15.00 55.00,15.00
             55.01,12.43 54.78,8.69 56.74,6.74
             59.20,4.28 67.52,4.99 71.00,5.00
             76.90,5.01 83.10,5.44 87.79,9.56
             92.90,14.04 93.43,23.57 89.35,28.89
             87.68,31.08 86.31,31.73 84.00,33.00
             87.35,37.12 93.41,47.74 94.07,52.98
             94.90,59.54 85.65,58.30 83.41,56.83
             77.35,52.82 80.01,39.58 68.00,37.00
             68.00,40.57 68.64,53.16 66.98,55.63 Z
           M 129.70,48.02
           C 132.46,49.87 132.93,55.63 129.70,57.26
             127.96,58.14 124.02,58.00 122.00,58.00
             103.16,58.03 100.15,59.39 100.00,49.00
             100.00,49.00 100.00,15.00 100.00,15.00
             100.01,12.43 99.78,8.69 101.74,6.74
             103.82,4.65 108.24,5.00 111.00,5.00
             114.45,4.99 128.26,4.32 130.40,6.02
             132.71,7.85 132.40,13.07 129.69,14.40
             127.73,15.36 115.95,15.00 113.00,15.00
             113.00,15.00 113.00,25.00 113.00,25.00
             115.85,25.00 124.57,24.66 126.70,25.74
             129.71,27.26 129.71,32.92 126.70,34.40
             124.82,35.32 115.62,35.00 113.00,35.00
             113.00,35.00 113.00,47.00 113.00,47.00
             116.38,47.00 127.31,46.44 129.70,48.02 Z
           M 76.63,25.83
           C 79.52,23.80 79.73,18.20 76.63,16.17
             74.59,14.77 70.49,15.01 68.00,15.00
             68.00,15.00 68.00,27.00 68.00,27.00
             70.45,26.99 74.51,27.24 76.63,25.83 Z
           M 32.00,80.00
           C 32.00,80.00 32.00,85.00 32.00,85.00
             38.59,83.54 37.95,87.83 38.00,93.00
             38.00,93.00 36.00,93.00 36.00,93.00
             36.00,93.00 35.00,85.00 35.00,85.00
             35.00,85.00 33.00,85.00 33.00,85.00
             33.00,85.00 32.00,93.00 32.00,93.00
             32.00,93.00 30.00,93.00 30.00,93.00
             30.00,93.00 30.00,80.00 30.00,80.00
             30.00,80.00 32.00,80.00 32.00,80.00 Z
           M 129.00,81.00
           C 129.00,81.00 129.00,85.00 129.00,85.00
             129.00,85.00 127.00,93.00 127.00,93.00
             127.00,93.00 125.00,93.00 125.00,93.00
             125.00,93.00 123.00,84.00 123.00,84.00
             125.24,81.93 125.82,80.38 129.00,81.00 Z
           M 149.00,80.00
           C 149.00,80.00 149.00,85.00 149.00,85.00
             155.59,83.54 154.95,87.83 155.00,93.00
             155.00,93.00 153.00,93.00 153.00,93.00
             153.00,93.00 152.00,85.00 152.00,85.00
             152.00,85.00 150.00,85.00 150.00,85.00
             150.00,85.00 149.00,93.00 149.00,93.00
             149.00,93.00 147.00,93.00 147.00,93.00
             147.00,93.00 147.00,80.00 147.00,80.00
             147.00,80.00 149.00,80.00 149.00,80.00 Z
           M 12.00,93.00
           C 12.00,93.00 5.00,87.00 5.00,87.00
             5.00,87.00 5.00,93.00 5.00,93.00
             5.00,93.00 3.00,93.00 3.00,93.00
             3.00,93.00 3.00,81.00 3.00,81.00
             12.87,81.34 8.38,83.72 12.00,93.00 Z
           M 5.00,82.00
           C 5.00,82.00 5.00,86.00 5.00,86.00
             5.00,86.00 9.00,85.00 9.00,85.00
             9.00,85.00 9.00,83.00 9.00,83.00
             9.00,83.00 5.00,82.00 5.00,82.00 Z
           M 108.00,82.00
           C 108.00,82.00 103.00,82.00 103.00,82.00
             103.00,82.00 103.00,86.00 103.00,86.00
             103.00,86.00 108.00,87.00 108.00,87.00
             108.00,87.00 103.00,87.00 103.00,87.00
             103.00,87.00 103.00,92.00 103.00,92.00
             103.00,92.00 108.00,93.00 108.00,93.00
             108.00,93.00 101.00,93.00 101.00,93.00
             101.00,93.00 101.00,81.00 101.00,81.00
             101.00,81.00 108.00,82.00 108.00,82.00 Z
           M 162.08,85.63
           C 160.66,83.12 162.88,79.30 168.00,83.00
             168.00,83.00 163.00,82.00 163.00,82.00
             164.95,85.80 167.34,87.12 167.56,89.15
             167.94,92.63 164.59,93.59 161.00,91.00
             164.54,91.31 164.32,91.33 167.00,89.00
             165.27,88.18 163.08,87.40 162.08,85.63 Z
           M 175.00,85.00
           C 171.01,87.72 172.58,89.67 175.00,93.00
             175.00,93.00 171.00,93.00 171.00,93.00
             171.00,93.00 169.00,84.00 169.00,84.00
             169.00,84.00 171.00,83.00 171.00,83.00
             171.00,83.00 171.00,82.00 171.00,82.00
             171.00,82.00 175.00,85.00 175.00,85.00 Z
           M 17.05,92.55
           C 8.72,92.31 16.07,79.87 19.41,86.32
             19.89,87.24 19.84,88.08 20.00,89.00
             20.00,89.00 14.00,89.00 14.00,89.00
             14.00,89.00 20.00,92.00 20.00,92.00
             18.92,92.25 18.33,92.59 17.05,92.55 Z
           M 15.00,85.00
           C 15.00,85.00 14.00,88.00 14.00,88.00
             14.00,88.00 19.00,88.00 19.00,88.00
             19.00,88.00 15.00,85.00 15.00,85.00 Z
           M 25.15,92.57
           C 19.45,91.57 23.27,81.04 28.00,86.00
             28.00,86.00 24.00,85.00 24.00,85.00
             24.00,85.00 24.00,92.00 24.00,92.00
             24.00,92.00 29.00,92.00 29.00,92.00
             27.67,92.34 26.60,92.83 25.15,92.57 Z
           M 48.00,93.00
           C 48.00,93.00 46.00,93.00 46.00,93.00
             46.00,93.00 45.00,85.00 45.00,85.00
             45.00,85.00 43.00,85.00 43.00,85.00
             43.00,85.00 42.00,93.00 42.00,93.00
             42.00,93.00 40.00,93.00 40.00,93.00
             40.00,93.00 40.00,84.00 40.00,84.00
             46.94,84.54 47.91,83.69 48.00,93.00 Z
           M 52.00,84.00
           C 52.00,84.00 53.00,92.00 53.00,92.00
             53.00,92.00 55.00,92.00 55.00,92.00
             55.00,92.00 56.00,84.00 56.00,84.00
             56.00,84.00 58.00,84.00 58.00,84.00
             58.00,84.00 58.00,93.00 58.00,93.00
             51.06,92.46 50.09,93.31 50.00,84.00
             50.00,84.00 52.00,84.00 52.00,84.00 Z
           M 68.00,93.00
           C 68.00,93.00 66.00,93.00 66.00,93.00
             66.00,93.00 65.00,85.00 65.00,85.00
             65.00,85.00 63.00,85.00 63.00,85.00
             63.00,85.00 62.00,93.00 62.00,93.00
             62.00,93.00 60.00,93.00 60.00,93.00
             60.00,93.00 60.00,84.00 60.00,84.00
             66.94,84.54 67.91,83.69 68.00,93.00 Z
           M 75.34,92.00
           C 77.79,94.06 74.15,96.86 71.50,94.96
             69.05,93.34 69.50,86.68 71.50,85.01
             73.50,83.53 76.02,84.23 78.00,85.01
             78.00,85.01 71.00,91.00 71.00,91.00
             72.41,91.12 74.18,91.03 75.34,92.00 Z
           M 72.00,89.00
           C 74.26,87.41 74.39,87.42 73.00,85.00
             73.00,85.00 72.00,89.00 72.00,89.00 Z
           M 83.05,92.55
           C 74.72,92.31 82.07,79.87 85.41,86.32
             85.89,87.24 85.84,88.08 86.00,89.00
             86.00,89.00 80.00,89.00 80.00,89.00
             80.00,89.00 86.00,92.00 86.00,92.00
             84.92,92.25 84.33,92.59 83.05,92.55 Z
           M 81.00,85.00
           C 81.00,85.00 80.00,88.00 80.00,88.00
             80.00,88.00 85.00,88.00 85.00,88.00
             85.00,88.00 81.00,85.00 81.00,85.00 Z
           M 96.00,93.00
           C 96.00,93.00 94.00,93.00 94.00,93.00
             94.00,93.00 93.00,85.00 93.00,85.00
             93.00,85.00 91.00,85.00 91.00,85.00
             91.00,85.00 90.00,93.00 90.00,93.00
             90.00,93.00 88.00,93.00 88.00,93.00
             88.00,93.00 88.00,84.00 88.00,84.00
             94.94,84.54 95.91,83.69 96.00,93.00 Z
           M 112.00,84.00
           C 112.00,84.00 112.00,93.00 112.00,93.00
             112.00,93.00 110.00,93.00 110.00,93.00
             110.00,93.00 110.00,84.00 110.00,84.00
             110.00,84.00 112.00,84.00 112.00,84.00 Z
           M 122.00,93.00
           C 122.00,93.00 120.00,93.00 120.00,93.00
             120.00,93.00 119.00,85.00 119.00,85.00
             119.00,85.00 117.00,85.00 117.00,85.00
             117.00,85.00 116.00,93.00 116.00,93.00
             116.00,93.00 114.00,93.00 114.00,93.00
             114.00,93.00 114.00,84.00 114.00,84.00
             120.94,84.54 121.91,83.69 122.00,93.00 Z
           M 137.00,92.93
           C 137.00,92.93 134.06,92.93 134.06,92.93
             127.20,91.69 133.40,87.58 135.00,85.00
             135.00,85.00 130.00,85.00 130.00,85.00
             137.30,83.11 136.94,87.03 137.00,92.93 Z
           M 142.15,92.57
           C 136.45,91.57 140.27,81.04 145.00,86.00
             145.00,86.00 141.00,85.00 141.00,85.00
             141.00,85.00 141.00,92.00 141.00,92.00
             141.00,92.00 146.00,92.00 146.00,92.00
             144.67,92.34 143.60,92.83 142.15,92.57 Z
           M 180.05,92.55
           C 171.72,92.31 179.07,79.87 182.41,86.32
             182.89,87.24 182.84,88.08 183.00,89.00
             183.00,89.00 177.00,89.00 177.00,89.00
             177.00,89.00 183.00,92.00 183.00,92.00
             181.92,92.25 181.33,92.59 180.05,92.55 Z
           M 178.00,85.00
           C 178.00,85.00 177.00,88.00 177.00,88.00
             177.00,88.00 182.00,88.00 182.00,88.00
             182.00,88.00 178.00,85.00 178.00,85.00 Z
           M 187.00,84.00
           C 187.00,84.00 188.00,92.00 188.00,92.00
             188.00,92.00 190.00,92.00 190.00,92.00
             190.00,92.00 191.00,84.00 191.00,84.00
             191.00,84.00 193.00,84.00 193.00,84.00
             193.00,84.00 193.00,93.00 193.00,93.00
             186.06,92.46 185.09,93.31 185.00,84.00
             185.00,84.00 187.00,84.00 187.00,84.00 Z
           M 199.05,92.55
           C 190.72,92.31 198.07,79.87 201.41,86.32
             201.89,87.24 201.84,88.08 202.00,89.00
             202.00,89.00 196.00,89.00 196.00,89.00
             196.00,89.00 202.00,92.00 202.00,92.00
             200.92,92.25 200.33,92.59 199.05,92.55 Z
           M 197.00,85.00
           C 197.00,85.00 196.00,88.00 196.00,88.00
             196.00,88.00 201.00,88.00 201.00,88.00
             201.00,88.00 197.00,85.00 197.00,85.00 Z
           M 210.00,85.00
           C 206.14,87.32 206.25,88.70 206.00,93.00
             206.00,93.00 204.00,93.00 204.00,93.00
             204.00,93.00 204.00,84.00 204.00,84.00
             204.00,84.00 210.00,85.00 210.00,85.00 Z
           M 219.00,93.00
           C 219.00,93.00 217.00,93.00 217.00,93.00
             217.00,93.00 216.00,85.00 216.00,85.00
             216.00,85.00 214.00,85.00 214.00,85.00
             214.00,85.00 213.00,93.00 213.00,93.00
             213.00,93.00 211.00,93.00 211.00,93.00
             211.00,93.00 211.00,84.00 211.00,84.00
             217.94,84.54 218.91,83.69 219.00,93.00 Z
           M 132.00,92.00
           C 132.00,92.00 135.00,89.00 135.00,89.00
             135.00,89.00 132.00,92.00 132.00,92.00 Z
           M 71.00,95.00
           C 71.00,95.00 76.00,93.00 76.00,93.00
             72.84,92.58 72.84,92.35 71.00,95.00 Z" />
</svg>
