<?xml version="1.0" encoding="UTF-8" standalone="no"?>
<!DOCTYPE svg PUBLIC "-//W3C//DTD SVG 20010904//EN"
              "http://www.w3.org/TR/2001/REC-SVG-20010904/DTD/svg10.dtd">

<svg xmlns="http://www.w3.org/2000/svg"
     width="23.3304in" height="10.3112in"
     viewBox="0 0 2240 990">
  <path id="Auswahl"
        fill="none" stroke="black" stroke-width="1"
        d="M 1517.00,160.14
           C 1517.00,160.14 1534.00,160.14 1534.00,160.14
             1534.00,160.14 1546.00,160.91 1546.00,160.91
             1573.52,162.84 1602.73,168.10 1629.00,176.67
             1629.00,176.67 1658.00,186.86 1658.00,186.86
             1661.50,188.31 1666.80,190.10 1668.99,193.21
             1671.23,196.38 1670.99,200.31 1671.00,204.00
             1671.00,204.00 1671.00,266.00 1671.00,266.00
             1670.94,277.01 1667.81,279.28 1657.00,278.98
             1647.91,278.73 1642.12,272.38 1635.00,267.43
             1626.25,261.37 1616.77,256.34 1607.00,252.15
             1565.46,234.31 1508.99,222.67 1465.00,237.33
             1439.36,245.88 1416.67,263.92 1417.00,293.00
             1417.06,297.70 1417.74,301.46 1418.90,306.00
             1426.17,334.57 1457.74,342.95 1483.00,348.00
             1539.38,359.27 1610.79,364.29 1656.00,402.44
             1676.57,419.80 1688.96,451.32 1689.00,478.00
             1689.00,478.00 1689.00,503.00 1689.00,503.00
             1688.86,514.31 1684.79,528.52 1680.60,539.00
             1667.49,571.77 1646.49,594.24 1615.00,610.24
             1588.25,623.84 1567.01,630.68 1537.00,633.08
             1537.00,633.08 1525.00,634.00 1525.00,634.00
             1525.00,634.00 1477.00,634.00 1477.00,634.00
             1477.00,634.00 1456.00,632.17 1456.00,632.17
             1421.32,628.70 1398.61,622.08 1366.00,610.66
             1366.00,610.66 1344.00,601.85 1344.00,601.85
             1341.05,600.58 1336.99,599.22 1335.01,596.61
             1332.73,593.62 1333.01,589.55 1333.00,586.00
             1333.00,586.00 1333.00,520.00 1333.00,520.00
             1333.02,508.62 1335.20,505.69 1347.00,506.02
             1356.48,506.28 1362.64,513.31 1370.00,518.57
             1380.74,526.25 1392.13,533.00 1404.00,538.74
             1447.06,559.58 1509.59,571.46 1556.00,556.33
             1584.82,546.93 1608.38,528.69 1608.00,496.00
             1607.94,491.49 1607.22,486.33 1605.96,482.00
             1597.69,453.50 1564.15,446.67 1539.00,440.88
             1539.00,440.88 1497.00,433.58 1497.00,433.58
             1456.35,427.27 1411.42,418.52 1378.00,393.10
             1353.02,374.11 1336.05,339.45 1336.00,308.00
             1336.00,308.00 1336.00,282.00 1336.00,282.00
             1336.16,268.97 1341.99,250.63 1347.81,239.00
             1358.82,216.98 1376.92,199.42 1398.00,187.01
             1429.43,168.51 1448.01,165.42 1483.00,160.14
             1483.00,160.14 1517.00,160.14 1517.00,160.14 Z
           M 635.00,585.00
           C 635.00,585.00 635.00,613.00 635.00,613.00
             634.95,616.34 634.88,619.82 632.35,622.35
             629.40,625.30 624.84,624.99 621.00,625.00
             621.00,625.00 579.00,625.00 579.00,625.00
             574.56,625.00 564.79,625.67 561.21,623.55
             556.65,620.84 557.01,615.59 557.00,611.00
             557.00,611.00 557.00,301.00 557.00,301.00
             557.00,301.00 557.00,200.00 557.00,200.00
             557.00,193.41 555.18,175.03 560.39,171.01
             563.33,168.74 567.49,169.01 571.00,169.00
             571.00,169.00 683.00,169.00 683.00,169.00
             683.00,169.00 716.00,169.00 716.00,169.00
             716.00,169.00 728.00,169.91 728.00,169.91
             762.41,172.28 794.28,179.83 822.00,201.67
             846.21,220.74 862.95,252.94 863.00,284.00
             863.00,284.00 863.00,314.00 863.00,314.00
             862.64,344.53 846.32,378.68 825.00,400.00
             815.48,409.52 795.97,424.30 783.00,428.00
             783.00,428.00 807.72,457.00 807.72,457.00
             807.72,457.00 849.87,506.00 849.87,506.00
             849.87,506.00 925.85,594.00 925.85,594.00
             930.37,599.14 937.29,605.95 937.89,613.00
             938.36,618.44 936.80,623.24 930.98,624.87
             929.05,625.07 926.04,625.00 924.00,624.87
             924.00,624.87 856.00,624.87 856.00,624.87
             841.42,624.98 839.06,617.39 830.13,607.00
             830.13,607.00 787.25,556.00 787.25,556.00
             787.25,556.00 720.73,477.00 720.73,477.00
             716.66,472.23 703.30,455.18 699.00,453.02
             696.58,451.81 693.64,452.01 691.00,452.00
             691.00,452.00 635.00,452.00 635.00,452.00
             635.00,452.00 635.00,585.00 635.00,585.00 Z
           M 1154.00,553.00
           C 1154.00,553.00 1269.00,553.00 1269.00,553.00
             1279.03,553.14 1280.95,556.48 1281.00,566.00
             1281.00,566.00 1281.00,605.00 1281.00,605.00
             1281.00,609.56 1281.77,618.02 1278.99,621.61
             1276.12,625.33 1271.20,624.99 1267.00,625.00
             1267.00,625.00 1042.00,625.00 1042.00,625.00
             1042.00,625.00 997.00,625.00 997.00,625.00
             992.42,625.00 981.86,625.71 978.21,623.55
             973.65,620.84 974.01,615.59 974.00,611.00
             974.00,611.00 974.00,272.00 974.00,272.00
             974.00,272.00 974.00,195.00 974.00,195.00
             974.00,188.60 972.10,174.08 978.21,170.45
             981.01,168.79 984.85,169.01 988.00,169.00
             988.00,169.00 1213.00,169.00 1213.00,169.00
             1213.00,169.00 1258.00,169.00 1258.00,169.00
             1262.58,169.00 1273.14,168.29 1276.79,170.45
             1281.35,173.16 1280.99,178.41 1281.00,183.00
             1281.00,183.00 1281.00,229.00 1281.00,229.00
             1280.85,239.87 1276.81,240.98 1267.00,241.00
             1267.00,241.00 1052.00,241.00 1052.00,241.00
             1052.00,241.00 1052.00,340.00 1052.00,340.00
             1052.00,340.00 1228.00,340.00 1228.00,340.00
             1228.00,340.00 1267.00,340.00 1267.00,340.00
             1270.51,340.01 1274.67,339.74 1277.61,342.01
             1281.33,344.88 1280.99,349.80 1281.00,354.00
             1281.00,354.00 1281.00,393.00 1281.00,393.00
             1281.00,397.41 1281.72,405.08 1278.99,408.61
             1276.12,412.33 1271.20,411.99 1267.00,412.00
             1267.00,412.00 1052.00,412.00 1052.00,412.00
             1052.00,412.00 1052.00,553.00 1052.00,553.00
             1052.00,553.00 1154.00,553.00 1154.00,553.00 Z
           M 681.00,389.00
           C 681.00,389.00 700.00,388.00 700.00,388.00
             716.16,387.81 739.28,383.19 753.00,374.56
             777.53,359.15 785.88,336.56 787.26,309.00
             787.26,309.00 787.26,301.00 787.26,301.00
             786.80,290.11 785.41,278.76 780.10,269.00
             774.58,258.85 765.92,251.53 756.00,245.87
             743.75,238.88 723.08,235.07 709.00,235.00
             709.00,235.00 692.00,234.00 692.00,234.00
             692.00,234.00 630.00,234.00 630.00,234.00
             630.00,234.00 630.00,389.00 630.00,389.00
             630.00,389.00 681.00,389.00 681.00,389.00 Z
           M 1247.16,802.00
           C 1252.64,782.09 1273.75,786.30 1289.00,787.00
             1289.00,787.00 1289.00,803.00 1289.00,803.00
             1281.64,801.96 1270.60,797.62 1267.57,808.00
             1267.09,809.63 1267.08,811.32 1267.00,813.00
             1267.00,813.00 1284.00,813.00 1284.00,813.00
             1284.00,813.00 1284.00,828.00 1284.00,828.00
             1284.00,828.00 1268.00,828.00 1268.00,828.00
             1268.00,828.00 1268.00,882.00 1268.00,882.00
             1268.00,882.00 1246.00,882.00 1246.00,882.00
             1246.00,882.00 1246.00,828.00 1246.00,828.00
             1246.00,828.00 1237.00,828.00 1237.00,828.00
             1237.00,828.00 1237.00,813.00 1237.00,813.00
             1237.00,813.00 1246.00,813.00 1246.00,813.00
             1246.01,808.59 1245.96,806.36 1247.16,802.00 Z
           M 391.00,787.00
           C 391.00,787.00 391.00,820.00 391.00,820.00
             398.39,815.08 403.77,811.41 413.00,811.04
             416.04,810.92 419.06,811.12 422.00,811.93
             439.07,816.60 438.00,831.90 438.00,846.00
             438.00,846.00 438.00,867.00 438.00,867.00
             438.00,867.00 438.00,882.00 438.00,882.00
             438.00,882.00 416.00,882.00 416.00,882.00
             416.00,882.00 416.00,847.00 416.00,847.00
             415.98,843.29 415.72,837.34 413.84,834.10
             409.11,825.98 395.83,829.44 392.60,833.39
             390.69,835.73 391.01,839.15 391.00,842.00
             391.00,842.00 391.00,882.00 391.00,882.00
             391.00,882.00 369.00,882.00 369.00,882.00
             369.00,882.00 369.00,787.00 369.00,787.00
             369.00,787.00 391.00,787.00 391.00,787.00 Z
           M 1135.00,787.00
           C 1135.00,787.00 1135.00,804.00 1135.00,804.00
             1135.00,804.00 1111.00,804.00 1111.00,804.00
             1111.00,804.00 1111.00,787.00 1111.00,787.00
             1111.00,787.00 1135.00,787.00 1135.00,787.00 Z
           M 1477.00,787.00
           C 1477.00,787.00 1477.00,820.00 1477.00,820.00
             1484.39,815.08 1489.77,811.41 1499.00,811.04
             1502.04,810.92 1505.06,811.12 1508.00,811.93
             1525.07,816.60 1524.00,831.90 1524.00,846.00
             1524.00,846.00 1524.00,867.00 1524.00,867.00
             1524.00,867.00 1524.00,882.00 1524.00,882.00
             1524.00,882.00 1502.00,882.00 1502.00,882.00
             1502.00,882.00 1502.00,847.00 1502.00,847.00
             1501.98,843.29 1501.72,837.34 1499.84,834.10
             1495.11,825.98 1481.83,829.44 1478.60,833.39
             1476.69,835.73 1477.01,839.15 1477.00,842.00
             1477.00,842.00 1477.00,882.00 1477.00,882.00
             1477.00,882.00 1455.00,882.00 1455.00,882.00
             1455.00,882.00 1455.00,787.00 1455.00,787.00
             1455.00,787.00 1477.00,787.00 1477.00,787.00 Z
           M 1604.00,864.92
           C 1611.69,867.56 1622.21,869.43 1630.00,866.44
             1635.99,864.14 1640.50,858.80 1634.85,853.22
             1630.49,848.91 1621.86,848.04 1616.00,846.79
             1600.92,843.58 1584.84,838.27 1584.04,820.00
             1583.01,796.35 1606.59,788.97 1626.00,789.00
             1633.74,789.01 1641.49,790.27 1649.00,792.13
             1651.40,792.73 1655.50,793.56 1657.01,795.65
             1658.25,797.37 1658.00,800.92 1658.00,803.00
             1658.00,803.00 1658.00,816.00 1658.00,816.00
             1652.07,814.76 1650.31,812.34 1645.00,809.79
             1638.66,806.74 1631.06,804.75 1624.00,805.04
             1618.58,805.26 1606.72,808.40 1608.84,815.98
             1610.77,822.85 1623.10,824.12 1629.00,825.42
             1645.85,829.14 1662.81,834.08 1661.96,855.00
             1660.99,878.99 1635.10,884.03 1616.00,884.00
             1607.85,883.99 1599.81,882.61 1592.00,880.28
             1589.71,879.60 1585.42,878.48 1584.02,876.49
             1582.77,874.71 1583.00,871.14 1583.00,869.00
             1583.00,869.00 1583.00,855.00 1583.00,855.00
             1590.18,856.50 1592.44,860.96 1604.00,864.92 Z
           M 152.00,791.00
           C 160.74,791.00 170.02,790.64 178.00,794.82
             197.04,804.81 195.68,832.87 173.00,843.00
             173.00,843.00 203.00,882.00 203.00,882.00
             203.00,882.00 179.00,882.00 179.00,882.00
             170.84,881.86 169.03,876.17 164.58,870.00
             161.68,865.99 151.53,851.13 147.83,849.60
             145.88,848.79 141.26,849.00 139.00,849.00
             139.00,849.00 139.00,882.00 139.00,882.00
             139.00,882.00 116.00,882.00 116.00,882.00
             116.00,882.00 116.00,791.00 116.00,791.00
             116.00,791.00 152.00,791.00 152.00,791.00 Z
           M 1094.00,791.00
           C 1094.00,791.00 1094.00,809.00 1094.00,809.00
             1094.00,809.00 1052.00,809.00 1052.00,809.00
             1052.00,809.00 1052.00,824.00 1052.00,824.00
             1052.00,824.00 1091.00,824.00 1091.00,824.00
             1091.00,824.00 1091.00,842.00 1091.00,842.00
             1091.00,842.00 1052.00,842.00 1052.00,842.00
             1052.00,842.00 1052.00,864.00 1052.00,864.00
             1052.00,864.00 1094.00,864.00 1094.00,864.00
             1094.00,864.00 1094.00,882.00 1094.00,882.00
             1094.00,882.00 1029.00,882.00 1029.00,882.00
             1029.00,882.00 1029.00,791.00 1029.00,791.00
             1029.00,791.00 1094.00,791.00 1094.00,791.00 Z
           M 1700.00,793.00
           C 1700.00,793.00 1700.00,813.00 1700.00,813.00
             1700.00,813.00 1720.00,813.00 1720.00,813.00
             1720.00,813.00 1720.00,828.00 1720.00,828.00
             1720.00,828.00 1700.00,828.00 1700.00,828.00
             1700.00,828.00 1700.00,853.00 1700.00,853.00
             1700.01,858.70 1699.82,865.35 1706.04,867.99
             1710.58,869.92 1715.41,867.71 1720.00,867.00
             1720.00,869.83 1720.54,879.35 1719.01,881.26
             1717.49,883.15 1711.38,883.75 1709.00,883.91
             1700.37,884.50 1688.41,884.09 1682.42,876.90
             1678.99,872.78 1678.06,866.20 1678.00,861.00
             1678.00,861.00 1678.00,828.00 1678.00,828.00
             1678.00,828.00 1669.00,828.00 1669.00,828.00
             1669.00,828.00 1669.00,813.00 1669.00,813.00
             1669.00,813.00 1678.00,813.00 1678.00,813.00
             1678.00,813.00 1678.00,793.00 1678.00,793.00
             1678.00,793.00 1700.00,793.00 1700.00,793.00 Z
           M 161.86,830.00
           C 168.28,825.47 169.00,813.42 161.86,809.14
             157.01,806.19 144.95,807.00 139.00,807.00
             139.00,807.00 139.00,833.00 139.00,833.00
             145.64,833.00 156.27,833.88 161.86,830.00 Z
           M 247.00,884.00
           C 240.16,883.92 231.13,882.26 225.00,879.19
             219.64,876.51 215.42,873.04 212.11,868.00
             202.10,852.80 206.56,827.27 222.00,817.11
             237.74,806.75 267.75,808.24 276.67,827.00
             279.43,832.79 279.99,838.70 280.00,845.00
             280.00,845.00 280.00,852.00 280.00,852.00
             280.00,852.00 229.00,852.00 229.00,852.00
             229.63,854.98 230.15,857.38 231.88,859.99
             238.70,870.31 253.42,870.41 264.00,866.91
             269.17,865.20 273.67,862.08 279.00,861.00
             279.00,861.00 279.00,879.00 279.00,879.00
             264.09,882.40 263.81,884.19 247.00,884.00 Z
           M 355.00,871.00
           C 355.00,873.10 355.25,876.61 354.01,878.35
             351.27,882.18 337.63,883.94 333.00,884.00
             309.24,884.27 290.00,874.40 290.00,848.00
             290.00,822.05 307.86,810.73 332.00,811.00
             336.66,811.06 351.25,813.02 354.01,816.70
             355.26,818.37 355.00,821.96 355.00,824.00
             355.00,824.00 355.00,835.00 355.00,835.00
             345.83,833.61 336.03,821.98 323.00,829.28
             307.84,837.76 310.17,864.11 328.00,867.53
             341.05,870.04 346.41,861.31 355.00,860.00
             355.00,860.00 355.00,871.00 355.00,871.00 Z
           M 502.00,811.04
           C 505.04,810.92 508.06,811.12 511.00,811.93
             528.07,816.60 527.00,831.90 527.00,846.00
             527.00,846.00 527.00,867.00 527.00,867.00
             527.00,867.00 527.00,882.00 527.00,882.00
             527.00,882.00 505.00,882.00 505.00,882.00
             505.00,882.00 505.00,847.00 505.00,847.00
             504.98,843.29 504.72,837.34 502.84,834.10
             498.11,825.98 484.83,829.44 481.60,833.39
             479.69,835.73 480.01,839.15 480.00,842.00
             480.00,842.00 480.00,882.00 480.00,882.00
             480.00,882.00 458.00,882.00 458.00,882.00
             458.00,882.00 458.00,813.00 458.00,813.00
             458.00,813.00 480.00,813.00 480.00,813.00
             480.00,813.00 480.00,820.00 480.00,820.00
             487.39,815.08 492.77,811.41 502.00,811.04 Z
           M 680.00,811.04
           C 683.04,810.92 686.06,811.12 689.00,811.93
             706.07,816.60 705.00,831.90 705.00,846.00
             705.00,846.00 705.00,867.00 705.00,867.00
             705.00,867.00 705.00,882.00 705.00,882.00
             705.00,882.00 683.00,882.00 683.00,882.00
             683.00,882.00 683.00,847.00 683.00,847.00
             682.98,843.29 682.72,837.34 680.84,834.10
             676.11,825.98 662.83,829.44 659.60,833.39
             657.69,835.73 658.01,839.15 658.00,842.00
             658.00,842.00 658.00,882.00 658.00,882.00
             658.00,882.00 636.00,882.00 636.00,882.00
             636.00,882.00 636.00,813.00 636.00,813.00
             636.00,813.00 658.00,813.00 658.00,813.00
             658.00,813.00 658.00,820.00 658.00,820.00
             665.39,815.08 670.77,811.41 680.00,811.04 Z
           M 757.00,880.52
           C 753.32,881.12 748.73,881.20 745.00,880.52
             738.98,879.92 732.43,877.39 728.21,872.90
             717.36,861.35 717.42,835.44 726.61,823.00
             732.92,814.46 742.63,810.81 753.00,811.02
             759.63,811.15 764.27,812.83 770.00,816.00
             770.00,816.00 772.29,813.59 772.29,813.59
             772.29,813.59 792.00,813.00 792.00,813.00
             792.00,813.00 792.00,873.00 792.00,873.00
             791.99,881.05 791.11,889.30 786.21,895.99
             777.20,908.31 755.89,909.28 742.00,907.42
             734.43,906.41 727.16,908.35 727.00,899.00
             727.00,899.00 727.00,888.00 727.00,888.00
             739.48,889.05 762.12,899.19 768.85,882.00
             769.92,879.29 769.94,876.85 770.00,874.00
             765.32,877.57 762.83,879.09 757.00,880.52 Z
           M 847.00,884.00
           C 840.16,883.92 831.13,882.26 825.00,879.19
             819.64,876.51 815.42,873.04 812.11,868.00
             802.10,852.80 806.56,827.27 822.00,817.11
             837.74,806.75 867.75,808.24 876.67,827.00
             879.43,832.79 879.99,838.70 880.00,845.00
             880.00,845.00 880.00,852.00 880.00,852.00
             880.00,852.00 829.00,852.00 829.00,852.00
             829.63,854.98 830.15,857.38 831.88,859.99
             838.70,870.31 853.42,870.41 864.00,866.91
             869.17,865.20 873.67,862.08 879.00,861.00
             879.00,861.00 879.00,879.00 879.00,879.00
             864.09,882.40 863.81,884.19 847.00,884.00 Z
           M 939.00,811.04
           C 942.04,810.92 945.06,811.12 948.00,811.93
             965.07,816.60 964.00,831.90 964.00,846.00
             964.00,846.00 964.00,867.00 964.00,867.00
             964.00,867.00 964.00,882.00 964.00,882.00
             964.00,882.00 942.00,882.00 942.00,882.00
             942.00,882.00 942.00,847.00 942.00,847.00
             941.98,843.29 941.72,837.34 939.84,834.10
             935.11,825.98 921.83,829.44 918.60,833.39
             916.69,835.73 917.01,839.15 917.00,842.00
             917.00,842.00 917.00,882.00 917.00,882.00
             917.00,882.00 895.00,882.00 895.00,882.00
             895.00,882.00 895.00,813.00 895.00,813.00
             895.00,813.00 917.00,813.00 917.00,813.00
             917.00,813.00 917.00,820.00 917.00,820.00
             924.39,815.08 929.77,811.41 939.00,811.04 Z
           M 1199.00,811.04
           C 1202.04,810.92 1205.06,811.12 1208.00,811.93
             1225.07,816.60 1224.00,831.90 1224.00,846.00
             1224.00,846.00 1224.00,867.00 1224.00,867.00
             1224.00,867.00 1224.00,882.00 1224.00,882.00
             1224.00,882.00 1202.00,882.00 1202.00,882.00
             1202.00,882.00 1202.00,847.00 1202.00,847.00
             1201.98,843.29 1201.72,837.34 1199.84,834.10
             1195.11,825.98 1181.83,829.44 1178.60,833.39
             1176.69,835.73 1177.01,839.15 1177.00,842.00
             1177.00,842.00 1177.00,882.00 1177.00,882.00
             1177.00,882.00 1155.00,882.00 1155.00,882.00
             1155.00,882.00 1155.00,813.00 1155.00,813.00
             1155.00,813.00 1177.00,813.00 1177.00,813.00
             1177.00,813.00 1177.00,820.00 1177.00,820.00
             1184.39,815.08 1189.77,811.41 1199.00,811.04 Z
           M 1338.00,811.87
           C 1344.43,812.79 1352.09,814.93 1356.36,820.18
             1360.17,824.86 1360.97,830.21 1361.00,836.00
             1361.00,836.00 1361.00,882.00 1361.00,882.00
             1361.00,882.00 1339.00,882.00 1339.00,882.00
             1339.00,882.00 1339.00,875.00 1339.00,875.00
             1329.57,882.22 1317.79,886.80 1306.00,882.44
             1290.45,876.69 1288.15,857.94 1297.21,848.09
             1305.65,838.92 1326.97,837.11 1339.00,837.00
             1336.96,827.41 1328.67,825.69 1320.00,826.04
             1312.39,826.35 1305.44,829.85 1298.00,831.00
             1298.00,831.00 1298.00,814.00 1298.00,814.00
             1313.93,811.89 1321.17,809.45 1338.00,811.87 Z
           M 1441.00,871.00
           C 1441.00,873.10 1441.25,876.61 1440.01,878.35
             1437.27,882.18 1423.63,883.94 1419.00,884.00
             1395.24,884.27 1376.00,874.40 1376.00,848.00
             1376.00,822.05 1393.86,810.73 1418.00,811.00
             1422.66,811.06 1437.25,813.02 1440.01,816.70
             1441.26,818.37 1441.00,821.96 1441.00,824.00
             1441.00,824.00 1441.00,835.00 1441.00,835.00
             1431.83,833.61 1422.03,821.98 1409.00,829.28
             1393.84,837.76 1396.17,864.11 1414.00,867.53
             1427.05,870.04 1432.41,861.31 1441.00,860.00
             1441.00,860.00 1441.00,871.00 1441.00,871.00 Z
           M 1768.00,884.00
           C 1761.16,883.92 1752.13,882.26 1746.00,879.19
             1740.64,876.51 1736.42,873.04 1733.11,868.00
             1723.10,852.80 1727.56,827.27 1743.00,817.11
             1758.74,806.75 1788.75,808.24 1797.67,827.00
             1800.43,832.79 1800.99,838.70 1801.00,845.00
             1801.00,845.00 1801.00,852.00 1801.00,852.00
             1801.00,852.00 1750.00,852.00 1750.00,852.00
             1750.63,854.98 1751.15,857.38 1752.88,859.99
             1759.70,870.31 1774.42,870.41 1785.00,866.91
             1790.17,865.20 1794.67,862.08 1800.00,861.00
             1800.00,861.00 1800.00,879.00 1800.00,879.00
             1785.09,882.40 1784.81,884.19 1768.00,884.00 Z
           M 1940.00,884.00
           C 1933.16,883.92 1924.13,882.26 1918.00,879.19
             1912.64,876.51 1908.42,873.04 1905.11,868.00
             1895.10,852.80 1899.56,827.27 1915.00,817.11
             1930.74,806.75 1960.75,808.24 1969.67,827.00
             1972.43,832.79 1972.99,838.70 1973.00,845.00
             1973.00,845.00 1973.00,852.00 1973.00,852.00
             1973.00,852.00 1922.00,852.00 1922.00,852.00
             1922.63,854.98 1923.15,857.38 1924.88,859.99
             1931.70,870.31 1946.42,870.41 1957.00,866.91
             1962.17,865.20 1966.67,862.08 1972.00,861.00
             1972.00,861.00 1972.00,879.00 1972.00,879.00
             1957.09,882.40 1956.81,884.19 1940.00,884.00 Z
           M 2094.00,811.04
           C 2097.04,810.92 2100.06,811.12 2103.00,811.93
             2120.07,816.60 2119.00,831.90 2119.00,846.00
             2119.00,846.00 2119.00,867.00 2119.00,867.00
             2119.00,867.00 2119.00,882.00 2119.00,882.00
             2119.00,882.00 2097.00,882.00 2097.00,882.00
             2097.00,882.00 2097.00,847.00 2097.00,847.00
             2096.98,843.29 2096.72,837.34 2094.84,834.10
             2090.11,825.98 2076.83,829.44 2073.60,833.39
             2071.69,835.73 2072.01,839.15 2072.00,842.00
             2072.00,842.00 2072.00,882.00 2072.00,882.00
             2072.00,882.00 2050.00,882.00 2050.00,882.00
             2050.00,882.00 2050.00,813.00 2050.00,813.00
             2050.00,813.00 2072.00,813.00 2072.00,813.00
             2072.00,813.00 2072.00,820.00 2072.00,820.00
             2079.39,815.08 2084.77,811.41 2094.00,811.04 Z
           M 569.00,813.00
           C 569.00,813.00 569.00,844.00 569.00,844.00
             569.00,848.76 568.60,855.66 570.65,859.96
             575.19,869.48 589.22,865.50 592.40,861.61
             594.31,859.27 593.99,855.85 594.00,853.00
             594.00,853.00 594.00,813.00 594.00,813.00
             594.00,813.00 616.00,813.00 616.00,813.00
             616.00,813.00 616.00,882.00 616.00,882.00
             616.00,882.00 594.00,882.00 594.00,882.00
             594.00,882.00 594.00,875.00 594.00,875.00
             589.02,878.32 585.80,880.75 580.00,882.64
             567.38,886.76 552.66,882.75 548.44,869.00
             546.40,862.34 547.00,854.93 547.00,848.00
             547.00,848.00 547.00,813.00 547.00,813.00
             547.00,813.00 569.00,813.00 569.00,813.00 Z
           M 1134.00,813.00
           C 1134.00,813.00 1134.00,882.00 1134.00,882.00
             1134.00,882.00 1112.00,882.00 1112.00,882.00
             1112.00,882.00 1112.00,813.00 1112.00,813.00
             1112.00,813.00 1134.00,813.00 1134.00,813.00 Z
           M 1838.00,813.00
           C 1838.00,813.00 1838.00,844.00 1838.00,844.00
             1838.00,848.76 1837.60,855.66 1839.65,859.96
             1844.19,869.48 1858.22,865.50 1861.40,861.61
             1863.31,859.27 1862.99,855.85 1863.00,853.00
             1863.00,853.00 1863.00,813.00 1863.00,813.00
             1863.00,813.00 1885.00,813.00 1885.00,813.00
             1885.00,813.00 1885.00,882.00 1885.00,882.00
             1885.00,882.00 1863.00,882.00 1863.00,882.00
             1863.00,882.00 1863.00,875.00 1863.00,875.00
             1858.02,878.32 1854.80,880.75 1849.00,882.64
             1836.38,886.76 1821.66,882.75 1817.44,869.00
             1815.40,862.34 1816.00,854.93 1816.00,848.00
             1816.00,848.00 1816.00,813.00 1816.00,813.00
             1816.00,813.00 1838.00,813.00 1838.00,813.00 Z
           M 2010.00,813.00
           C 2010.00,813.00 2010.00,823.00 2010.00,823.00
             2020.28,814.31 2024.87,813.00 2038.00,813.00
             2038.00,813.00 2038.00,834.00 2038.00,834.00
             2031.68,833.49 2016.30,831.29 2011.60,836.51
             2009.68,838.64 2010.01,842.30 2010.00,845.00
             2010.00,845.00 2010.00,882.00 2010.00,882.00
             2010.00,882.00 1988.00,882.00 1988.00,882.00
             1988.00,882.00 1988.00,813.00 1988.00,813.00
             1988.00,813.00 2010.00,813.00 2010.00,813.00 Z
           M 231.70,831.19
           C 229.87,833.58 229.45,836.13 229.00,839.00
             229.00,839.00 258.00,839.00 258.00,839.00
             256.31,820.84 236.48,824.95 231.70,831.19 Z
           M 831.70,831.19
           C 829.87,833.58 829.45,836.13 829.00,839.00
             829.00,839.00 858.00,839.00 858.00,839.00
             856.31,820.84 836.48,824.95 831.70,831.19 Z
           M 1752.70,831.19
           C 1750.87,833.58 1750.45,836.13 1750.00,839.00
             1750.00,839.00 1779.00,839.00 1779.00,839.00
             1777.31,820.84 1757.48,824.95 1752.70,831.19 Z
           M 1924.70,831.19
           C 1922.87,833.58 1922.45,836.13 1922.00,839.00
             1922.00,839.00 1951.00,839.00 1951.00,839.00
             1949.31,820.84 1929.48,824.95 1924.70,831.19 Z
           M 748.21,831.22
           C 741.10,838.23 738.69,862.69 756.00,863.79
             757.60,864.02 759.42,863.94 761.00,863.79
             773.25,861.63 770.00,851.84 770.00,842.00
             770.00,838.87 770.74,831.04 768.40,828.93
             765.78,826.58 759.29,826.96 756.00,827.33
             752.72,828.14 750.72,828.75 748.21,831.22 Z
           M 1327.00,851.28
           C 1325.20,851.54 1321.63,852.20 1320.02,852.88
             1313.72,855.51 1312.49,862.63 1316.43,866.35
             1321.13,870.79 1334.63,869.44 1337.98,863.79
             1339.00,862.06 1338.96,859.93 1339.00,858.00
             1339.00,858.00 1339.00,850.00 1339.00,850.00
             1339.00,850.00 1327.00,851.28 1327.00,851.28 Z" />
</svg>
